HIERARCHY
ROOT Joint1
{
	OFFSET 0.000000 0.000000 0.000000
	CHANNELS 6 Xposition Yposition Zposition Xrotation Yrotation Zrotation
	JOINT Joint2
	{
		OFFSET -0.000000 0.000000 1.456275
		CHANNELS 6 Xposition Yposition Zposition Xrotation Yrotation Zrotation
		JOINT Joint3
		{
			OFFSET -0.000000 0.000002 1.471446
			CHANNELS 6 Xposition Yposition Zposition Xrotation Yrotation Zrotation
			JOINT Joint4
			{
				OFFSET 0.625745 0.000000 0.917755
				CHANNELS 6 Xposition Yposition Zposition Xrotation Yrotation Zrotation
				JOINT Joint5
				{
					OFFSET -0.629534 0.000001 0.940221
					CHANNELS 6 Xposition Yposition Zposition Xrotation Yrotation Zrotation
					JOINT Joint6
					{
						OFFSET -0.000001 0.113772 1.960660
						CHANNELS 6 Xposition Yposition Zposition Xrotation Yrotation Zrotation
						JOINT Joint7
						{
							OFFSET -0.669733 -0.113771 0.388340
							CHANNELS 6 Xposition Yposition Zposition Xrotation Yrotation Zrotation
							End Site
							{
								OFFSET 0.005509 0.005509 0.438980
							}
						}
					}
				}
			}
		}
	}
}
MOTION
Frames: 24
Frame Time: 0.041667
0.000000 0.000000 0.000000 -0.000000 1.019410 -1.063577 -0.000000 0.000000 1.456275 0.000000 -39.948697 -0.000000 -0.000000 0.000002 1.471446 -0.000002 -1.133464 -46.463004 0.625745 0.000000 0.917755 -0.000007 92.025714 -0.000003 -0.629534 0.000001 0.940221 -0.000001 1.709737 43.499361 -0.000001 0.113772 1.960660 -88.303889 65.308630 -0.000002 -0.669732 -0.113771 0.388340 0.311816 2.533536 44.080432 
0.000000 0.000000 0.000000 -0.000000 1.019410 -1.024472 -0.000000 0.000000 1.456275 -0.000000 -40.135182 0.000000 -0.000000 0.000002 1.471446 -0.000001 -1.133464 -44.743442 0.625744 0.000000 0.917755 0.000023 93.618234 -0.000002 -0.629534 0.000001 0.940221 -0.000003 1.709739 41.887597 -0.000001 0.113772 1.960660 -88.303896 66.222304 -0.000018 -0.669733 -0.113771 0.388340 0.311021 2.593224 47.444400 
0.000000 0.000000 0.000000 -0.000000 1.019410 -0.993659 -0.000000 0.000000 1.456275 0.000000 -40.282130 0.000000 -0.000000 0.000002 1.471446 -0.000001 -1.133468 -43.388483 0.625745 0.000001 0.917755 -0.000043 94.873097 -0.000001 -0.629534 0.000001 0.940221 0.000003 1.709734 40.617574 -0.000001 0.113773 1.960661 -88.303896 66.942261 -0.000001 -0.669733 -0.113771 0.388340 0.307925 2.640161 50.095230 
0.000000 0.000000 0.000000 -0.000000 1.019410 -0.969120 -0.000000 0.000000 1.456275 -0.000000 -40.399162 -0.000000 -0.000000 0.000002 1.471446 -0.000001 -1.133464 -42.309439 0.625745 0.000000 0.917755 0.000048 95.872408 -0.000018 -0.629533 0.000001 0.940221 0.000001 1.709738 39.606170 -0.000001 0.113772 1.960661 -88.303889 67.515614 -0.000008 -0.669732 -0.113771 0.388340 0.303901 2.677404 52.206319 
0.000000 0.000000 0.000000 -0.000000 1.019410 -0.946263 -0.000000 0.000000 1.456275 -0.000000 -40.508158 0.000000 -0.000000 0.000002 1.471446 -0.000001 -1.133466 -41.304340 0.625745 0.000000 0.917755 0.000027 96.803267 0.000006 -0.629534 0.000001 0.940221 -0.000002 1.709736 38.664072 -0.000001 0.113772 1.960660 -88.303896 68.049680 -0.000013 -0.669733 -0.113771 0.388340 0.298932 2.711945 54.172833 
0.000000 0.000000 0.000000 -0.000000 1.019410 -0.921464 -0.000000 0.000000 1.456275 0.000000 -40.626426 0.000000 -0.000000 0.000002 1.471446 -0.000001 -1.133461 -40.213855 0.625745 0.000000 0.917755 0.000017 97.813186 0.000005 -0.629534 0.000001 0.940221 0.000001 1.709735 37.641948 -0.000001 0.113772 1.960661 -88.303896 68.629099 0.000001 -0.669733 -0.113771 0.388340 0.292193 2.749199 56.306433 
0.000000 0.000000 0.000000 -0.000000 1.019410 -0.894984 -0.000000 -0.000000 1.456275 0.000000 -40.752710 0.000000 -0.000000 0.000002 1.471446 -0.000001 -1.133466 -39.049448 0.625745 0.000000 0.917755 0.000032 98.891563 -0.000001 -0.629534 0.000001 0.940221 -0.000001 1.709739 36.550531 -0.000001 0.113772 1.960660 -88.303903 69.247818 -0.000014 -0.669733 -0.113771 0.388339 0.283470 2.788673 58.584773 
0.000000 0.000000 0.000000 -0.000000 1.019410 -0.868053 -0.000000 0.000000 1.456275 0.000000 -40.881138 0.000000 -0.000001 0.000002 1.471446 -0.000001 -1.133467 -37.865230 0.625745 0.000000 0.917755 -0.000006 99.988307 -0.000001 -0.629534 0.000001 0.940221 0.000001 1.709738 35.440540 -0.000001 0.113772 1.960661 -88.303903 69.877043 -0.000004 -0.669733 -0.113771 0.388340 0.272993 2.828434 60.901955 
0.000000 0.000000 0.000000 -0.000000 1.019410 -0.841642 -0.000000 0.000000 1.456275 -0.000000 -41.007093 -0.000000 -0.000000 0.000002 1.471446 -0.000001 -1.133459 -36.703883 0.625745 0.000000 0.917755 0.000008 101.063857 -0.000009 -0.629533 0.000001 0.940221 0.000002 1.709738 34.351996 -0.000001 0.113772 1.960660 -88.303889 70.494123 0.000001 -0.669733 -0.113771 0.388340 0.261168 2.866981 63.174462 
0.000000 0.000000 0.000000 -0.000000 1.019410 -0.815682 -0.000000 0.000000 1.456275 -0.000000 -41.130890 -0.000000 -0.000000 0.000002 1.471446 -0.000001 -1.133463 -35.562353 0.625745 0.000000 0.917755 0.000003 102.121054 0.000004 -0.629533 0.000001 0.940221 0.000003 1.709735 33.282016 -0.000001 0.113772 1.960660 -88.303882 71.100678 -0.000012 -0.669733 -0.113771 0.388340 0.248058 2.904386 65.408296 
0.000000 0.000000 0.000000 -0.000000 1.019410 -0.789843 -0.000000 0.000000 1.456275 -0.000000 -41.254121 0.000000 -0.000000 0.000002 1.471445 -0.000001 -1.133459 -34.426124 0.625744 0.000000 0.917755 0.000010 103.173334 -0.000012 -0.629534 0.000001 0.940221 0.000002 1.709732 32.217022 -0.000001 0.113772 1.960660 -88.303916 71.704412 -0.000016 -0.669734 -0.113771 0.388340 0.233571 2.941082 67.631823 
0.000000 0.000000 0.000000 -0.000000 1.019410 -0.763865 -0.000000 0.000000 1.456275 -0.000000 -41.378010 0.000000 -0.000000 0.000002 1.471445 -0.000001 -1.133461 -33.283771 0.625745 0.000000 0.917755 0.000003 104.231296 -0.000000 -0.629533 0.000001 0.940221 0.000003 1.709739 31.146274 -0.000001 0.113772 1.960661 -88.303889 72.311404 0.000004 -0.669734 -0.113771 0.388340 0.217574 2.977386 69.867405 
0.000000 0.000000 0.000000 -0.000000 1.019410 -0.737766 -0.000000 0.000000 1.456275 0.000000 -41.502477 0.000000 -0.000000 0.000002 1.471446 -0.000001 -1.133462 -32.136108 0.625745 0.000000 0.917755 -0.000003 105.294176 -0.000007 -0.629533 0.000001 0.940221 0.000002 1.709735 30.070546 -0.000001 0.113772 1.960661 -88.303909 72.921217 0.000007 -0.669733 -0.113771 0.388340 0.200090 3.013196 72.113479 
0.000000 0.000000 0.000000 -0.000000 1.019410 -0.711634 -0.000000 0.000000 1.456275 0.000000 -41.627100 -0.000000 -0.000000 0.000002 1.471445 -0.000001 -1.133459 -30.987021 0.625745 0.000000 0.917755 0.000007 106.358374 -0.000003 -0.629534 0.000001 0.940221 0.000001 1.709734 28.993494 -0.000001 0.113772 1.960661 -88.303896 73.531781 -0.000005 -0.669732 -0.113771 0.388341 0.181189 3.048340 74.362421 
0.000000 0.000000 0.000000 -0.000000 1.019410 -0.685539 -0.000000 0.000000 1.456275 -0.000000 -41.751543 -0.000000 -0.000000 0.000002 1.471446 -0.000001 -1.133462 -29.839560 0.625745 0.000000 0.917755 0.000011 107.421063 -0.000009 -0.629533 0.000001 0.940221 0.000000 1.709736 27.917968 -0.000001 0.113773 1.960661 -88.303889 74.141485 0.000001 -0.669734 -0.113772 0.388340 0.160950 3.082669 76.608256 
0.000000 0.000000 0.000000 -0.000000 1.019410 -0.659477 -0.000000 0.000000 1.456275 -0.000000 -41.875835 0.000000 -0.000001 0.000002 1.471446 -0.000001 -1.133467 -28.693536 0.625745 0.000000 0.917755 0.000007 108.482426 -0.000003 -0.629534 0.000001 0.940221 0.000005 1.709735 26.843779 -0.000001 0.113772 1.960661 -88.303896 74.750424 -0.000002 -0.669733 -0.113771 0.388340 0.139412 3.116141 78.851372 
0.000000 0.000000 0.000000 -0.000000 1.019410 -0.633424 -0.000000 0.000000 1.456275 0.000000 -42.000076 -0.000000 -0.000000 0.000002 1.471445 -0.000001 -1.133460 -27.547907 0.625744 0.000000 0.917755 0.000016 109.543414 -0.000005 -0.629534 0.000001 0.940221 -0.000000 1.709738 25.769962 -0.000001 0.113772 1.960660 -88.303882 75.359151 -0.000019 -0.669733 -0.113771 0.388341 0.116578 3.148729 81.093791 
0.000000 0.000000 0.000000 -0.000000 1.019410 -0.607362 -0.000000 0.000000 1.456275 0.000000 -42.124362 0.000000 -0.000001 0.000002 1.471446 -0.000001 -1.133461 -26.401871 0.625745 0.000000 0.917755 0.000007 110.604778 -0.000003 -0.629533 0.000001 0.940221 -0.000002 1.709738 24.695765 -0.000002 0.113772 1.960661 -88.303903 75.968103 -0.000010 -0.669733 -0.113771 0.388339 0.092478 3.180413 83.337098 
0.000000 0.000000 0.000000 -0.000000 1.019410 -0.581291 -0.000000 -0.000000 1.456275 -0.000000 -42.248699 0.000000 -0.000001 0.000002 1.471445 -0.000000 -1.133464 -25.255432 0.625745 0.000000 0.917755 0.000007 111.666531 -0.000005 -0.629534 0.000001 0.940221 -0.000001 1.709736 23.621190 -0.000001 0.113772 1.960660 -88.303889 76.577260 -0.000003 -0.669732 -0.113771 0.388341 0.067144 3.211145 85.581273 
0.000000 0.000000 0.000000 -0.000000 1.019410 -0.555215 -0.000000 0.000000 1.456275 0.000000 -42.373052 -0.000000 -0.000000 0.000002 1.471446 -0.000000 -1.133458 -24.108797 0.625745 0.000000 0.917755 0.000009 112.728441 0.000002 -0.629534 0.000001 0.940221 0.000001 1.709737 22.546436 -0.000001 0.113772 1.960660 -88.303896 77.186520 -0.000014 -0.669733 -0.113771 0.388340 0.040617 3.240871 87.825892 
0.000000 0.000000 0.000000 -0.000000 1.019410 -0.529140 -0.000000 0.000000 1.456275 0.000000 -42.497406 0.000000 -0.000001 0.000002 1.471446 -0.000000 -1.133467 -22.962193 0.625745 0.000000 0.917755 0.000010 113.790337 -0.000004 -0.629534 0.000001 0.940221 -0.000003 1.709739 21.471705 -0.000000 0.113772 1.960660 -88.303909 77.795780 -0.000003 -0.669733 -0.113771 0.388340 0.012946 3.269520 90.070552 
0.000000 0.000000 0.000000 -0.000000 1.019410 -0.503069 -0.000000 0.000000 1.456275 -0.000000 -42.621743 -0.000000 -0.000000 0.000002 1.471446 -0.000000 -1.133459 -21.815771 0.625744 0.000000 0.917755 0.000009 114.852076 -0.000008 -0.629534 0.000001 0.940221 -0.000002 1.709737 20.397144 -0.000001 0.113772 1.960661 -88.303903 78.404923 -0.000003 -0.669733 -0.113771 0.388341 -0.015825 3.297075 92.314931 
0.000000 0.000000 0.000000 -0.000000 1.019410 -0.477005 -0.000000 -0.000000 1.456275 0.000000 -42.746032 -0.000000 -0.000000 0.000002 1.471446 -0.000000 -1.133462 -20.669698 0.625744 0.000001 0.917755 0.000007 115.913474 -0.000002 -0.629534 0.000001 0.940221 -0.000000 1.709740 19.322909 -0.000001 0.113772 1.960660 -88.303916 79.013889 0.000001 -0.669733 -0.113771 0.388340 -0.045646 3.323473 94.558696 
0.000000 0.000000 0.000000 -0.000000 1.019410 -0.450950 -0.000000 0.000000 1.456275 -0.000000 -42.870287 0.000000 -0.000000 0.000002 1.471446 -0.000000 -1.133461 -19.523951 0.625745 0.000000 0.917755 0.000006 116.974598 -0.000002 -0.629534 0.000001 0.940221 -0.000000 1.709736 18.248987 -0.000001 0.113772 1.960660 -88.303909 79.622684 -0.000004 -0.669733 -0.113771 0.388339 -0.076469 3.348677 96.801887 
